<svg enable-background="new 0 0 100 100" height="512" viewBox="0 0 100 100" width="512" xmlns="http://www.w3.org/2000/svg"><path d="m77.1667404 34.4151688c-.6990891-2.6774387-1.3981781-5.3548794-2.0972137-8.0325527.5918045.6279945 1.1836014 1.2559891 1.7754059 1.883749-.3882675-2.5535793-1.7871552-4.9391136-3.8258438-6.5250835.6011963.2077656 1.2024612.4155293 1.8037186.6232948-.5155334-.1781521-1.374382-1.6668186-1.8048935-2.0955105-.675766-.6726494-1.4042358-1.2917137-2.1747742-1.8529606-1.5421982-1.1239033-3.2533798-2.0148945-5.0582733-2.6341944-.8831787-.3029509-2.5001717-.9904079-3.628952-.7539701-.5967369-.0954208-1.2063408-.1619339-1.8384476-.1725101 0 0-.0519409-.121274-.1493607-.3161125-1.1998177-5.103634-5.9487953-9.1816055-11.1873932-9.5393182 1.0246048.9612646 2.0492096 1.9222941 3.0738716 2.8835588-3.7814827-.1993036-7.5629082-.3986073-11.3443909-.5976763 1.5337944.1941333 2.865345.6832266 3.3414536 2.0066695-3.7204933-.9140244-7.707077-.1334543-11.2195091 1.3963432 1.5301476.4063635 3.0293694.3741226 4.5594597.7802515-3.442749 1.9018469-6.885498 3.8036938-10.3281898 5.7055397.6039639-.1104622 1.2079277-.2209263 1.8118896-.3311539-1.832571 3.1427956-3.665144 6.2853546-5.4977169 9.4281502.4690571-.4989643.9725456-.9633808 1.5019474-1.3960667-1.0035114 2.4875374-1.4498291 5.9673615-2.0462723 13.6464329l2.4989948 22.4905357h1.6169338s-2.4989357-10.142868.1470108-15.434761-.2940197-11.9067535 3.3809357-12.4945602c3.6749001-.5880394 13.0827179 7.3498001 27.4884109-.7351646 0 0 8.6728249 3.8220253 9.4077568 4.8509789.734993 1.0289497-2.2049103 3.3808784.2940216 6.3208427 2.4989395 2.9399643 5.2590942 3.9227982 4.0831299 17.5934372l1.0617523-.1007729s.6964493-7.3596649 1.2840729-15.0624733c.0977173.3290367.1897278.6594887.3073044.9838257.1064072.2935486.328331.6449165.6315155.570179.2837372-.0700378.338501-.4437332.3342743-.7361069-.0280914-1.9335785-.0561752-3.8671532-.084198-5.8004951.4295654.8124924.8591995 1.6249847 1.2888336 2.4377136-.2310944-3.2697105-.4621811-6.5391884-.6932144-9.8086624.0009384.6044921.7379227 1.0736083 1.2859497.8186035z" fill="#293b44"/><path d="m48.3770447 11.3556089c-4.5532379-.4910355-9.294487 1.2429771-12.4565659 4.5557289 2.9132347-1.719264 6.7813377-1.672286 9.6519623.1172228-5.294796 1.3208771-10.8202171 2.7610722-14.8730602 6.41539 2.7706089-.8921852 5.5587749-1.7884388 8.4428082-2.1816864 2.8840294-.3932476 5.8986855-.2601471 8.5880318.8532658-4.1557617.3222122-8.2483826 1.4404392-11.9905968 3.2761917 4.1163063.0680504 8.2326164.1360989 12.3489265.2041492-3.5184364 2.4107361-7.9511452 3.450222-12.1744957 2.8549652 3.9419975 1.1827965 8.157917 1.4420853 12.2151451.7512569 1.893795-.3224564 3.7508774-.8478928 5.6538162-1.1110802s3.8972321-.2506504 5.6770821.4722404c-2.236145-1.7055988-4.4722939-3.4111996-6.7084389-5.1167984 2.1216164.2957401 4.1962891.9258232 6.1240463 1.85989-1.7031708-3.7181644-4.4950638-6.9297123-7.9401169-9.1336117 3.0324287 1.4725361 5.861084 3.3639679 8.3804779 5.6037521-1.3521614-2.4831696-3.1567688-4.7190628-5.298584-6.5648928.9179878.6988211 1.8359718 1.3976431 2.7539597 2.0964651.5320587.4050312 1.7260933 1.6990032 2.3901863 1.5537548-2.0074539-3.672713-6.7656097-6.0727841-10.784584-6.5062034z" fill="#467082" opacity=".25"/><path d="m69.1710892 22.509758c2.151947 2.5406818 3.2384186 5.9224243 3.1280518 9.2501526-.3653412-3.3437595-2.5485992-6.4323483-5.5789032-7.8922977 2.1578598 2.670269 3.6754379 5.8544083 4.3906174 9.2122707-.62146-2.0087852-2.4504852-3.5904579-4.527916-3.9155807 2.4013901 2.321867 4.1931 5.2688713 5.1492004 8.4694366-3.6181107-2.7835732-7.5002899-5.2237396-11.5774078-7.2770519 1.4704323.2439594 2.9408646.4879189 4.4113007.7318783-1.1920319-1.3156948-2.3840637-2.6313877-3.5760918-3.9470806 1.281765.4109707 2.56353.8219433 3.845295 1.232914-.7589111-1.64674-2.0812073-3.0275116-3.6935844-3.8569279 1.7003403.2909107 3.3667793.7795181 4.954998 1.4528294-1.3218918-1.8932552-3.2664185-3.3440285-5.4577637-4.0719204 1.5586929-.9264069 3.5807266-1.0214024 5.2194061-.2452087-1.3674316-.4756279-2.7276993-1.5479851-3.9928017-2.263979-.3334541-.1887207-1.2475319-.5747585-.6399918-1.0419006.307148-.2361698 1.3049812.1335011 1.6434517.2187176 2.4416809.6147516 4.6760101 2.0238684 6.3021393 3.9437483z" fill="#467082" opacity=".25"/><path d="m71.7832184 61.0125046-4.2225494 12.9958649-18.4571724 9.5792236-18.4571705-9.5792236-3.7166061-13.0773582h-1.6065502l.3913574 12.7312965c.1172619 4.6388321 2.3550453 8.9680328 6.0718842 11.7462692l9.239502 6.9061356c4.7899399 3.5803833 11.3652306 3.5803833 16.1551704 0l9.239502-6.9061356c3.716835-2.7782364 5.9546204-7.1074371 6.0718842-11.7462692l.319725-12.6498032z" fill="#293b44"/></svg>